<?xml version="1.0" encoding="UTF-8"?> <svg xmlns="http://www.w3.org/2000/svg" id="Layer_1" data-name="Layer 1" width="502.2" height="502.2" viewBox="0 0 502.2 502.2"><defs><style>.cls-1{fill:#222222;}.cls-2{fill:#222222;}.cls-3{fill:#d8cd00;}</style></defs><title>icon-large-searching</title><path class="cls-1" d="M251.1,490.2A239.1,239.1,0,0,1,82,82,239.1,239.1,0,0,1,420.17,420.17,237.53,237.53,0,0,1,251.1,490.2Z"></path><path class="cls-2" d="M251.1,24c125.42,0,227.1,101.68,227.1,227.1S376.52,478.2,251.1,478.2,24,376.52,24,251.1,125.68,24,251.1,24m0-24a251.17,251.17,0,0,0-97.75,482.46A251.16,251.16,0,0,0,348.85,19.74,249.59,249.59,0,0,0,251.1,0Z"></path><path class="cls-3" d="M284.38,157.39a68.68,68.68,0,0,1,27.54-5.84,63.88,63.88,0,0,1,15.67,1.9,2.92,2.92,0,0,0,3.58-3.21l-.72-5.73h0c-.6-9.53-11.5-17.22-24.55-17.22-13.41,0-26.22,8-26.22,18l.59,9.53A3,3,0,0,0,284.38,157.39Z"></path><path class="cls-3" d="M396.06,321.33l-.29-1.73c0-.11-.06-.23-.06-.35l-11-56c-1.43-12.93-10.84-24.2-24.55-31.17l-5.25-40.7c0-17.29-19.54-31.41-43-31.41s-45.71,14-45.71,31.35a18.47,18.47,0,0,0,.18,2.56l.29,4.41a46.18,46.18,0,0,0-15.55-2.62,45.43,45.43,0,0,0-15.67,2.68l.29-4.47a17.84,17.84,0,0,0,.18-2.56c0-17.29-22.34-31.35-45.71-31.35s-43,14.12-43,31.41L142,232.06c-13.71,6.91-23.12,18.24-24.55,31.17l-11,56c0,.12-.06.24-.06.35l-.29,1.73h0a40.58,40.58,0,0,0-.42,5.43c0,26.57,27.83,48.15,62.1,48.15s62.09-21.58,62.09-48.15h0V304.71a50.68,50.68,0,0,0,21.28,4.47,51.33,51.33,0,0,0,21.22-4.41v22h0c0,26.57,27.83,48.15,62.09,48.15s62.1-21.58,62.1-48.15A53.69,53.69,0,0,0,396.06,321.33Zm-228.3,36.24c-24.26,0-44.76-14.13-44.76-30.81S143.5,296,167.76,296s44.75,14.12,44.75,30.81S192,357.57,167.76,357.57Zm83.37-63.65c-10.19,0-18.47-5.78-18.47-12.87s8.28-12.88,18.47-12.88S269.6,274,269.6,281.05,261.32,293.92,251.13,293.92Zm83.25,63.65c-24.25,0-44.75-14.13-44.75-30.81S310.13,296,334.38,296s44.76,14.12,44.76,30.81S358.64,357.57,334.38,357.57Z"></path><path class="cls-3" d="M174.49,153.45a64.24,64.24,0,0,1,15.67-1.9,68.46,68.46,0,0,1,27.54,5.84,2.89,2.89,0,0,0,4.05-2.51l.6-9.53c0-9.95-12.82-18-26.23-18-13.05,0-23.89,7.69-24.55,17.22h0l-.71,5.73A2.91,2.91,0,0,0,174.49,153.45Z"></path></svg> 